<?xml version="1.0" encoding="utf-8"?>
<!-- Generator: Adobe Illustrator 17.1.0, SVG Export Plug-In . SVG Version: 6.00 Build 0)  -->
<!DOCTYPE svg PUBLIC "-//W3C//DTD SVG 1.1//EN" "http://www.w3.org/Graphics/SVG/1.1/DTD/svg11.dtd">
<svg version="1.1" id="Layer_2" xmlns="http://www.w3.org/2000/svg" xmlns:xlink="http://www.w3.org/1999/xlink" x="0px" y="0px"
	 width="16px" height="16px" viewBox="0 0 16 16" enable-background="new 0 0 16 16" xml:space="preserve">
<path fill="#FF6600" d="M2,0h12c1.1,0,2,0.9,2,2v12c0,1.1-0.9,2-2,2H2c-1.1,0-2-0.9-2-2V2C0,0.9,0.9,0,2,0z"/>
<path fill="#FFFFFF" d="M7,11h7v2H7V11z"/>
<path fill="#FFFFFF" d="M7,7h7v2H7V7z"/>
<path fill="#FFFFFF" d="M7,3h7v2H7V3z"/>
<path fill="#FFFFFF" d="M2,11h4v1H2V11z"/>
<path fill="#FFFFFF" d="M2,7h4v1H2V7z"/>
<path fill="#FFFFFF" d="M2,3h4v1H2V3z"/>
</svg>
