<?xml version="1.0" encoding="utf-8"?>
<!-- Generator: Adobe Illustrator 17.1.0, SVG Export Plug-In . SVG Version: 6.00 Build 0)  -->
<!DOCTYPE svg PUBLIC "-//W3C//DTD SVG 1.1//EN" "http://www.w3.org/Graphics/SVG/1.1/DTD/svg11.dtd">
<svg version="1.1" xmlns="http://www.w3.org/2000/svg" xmlns:xlink="http://www.w3.org/1999/xlink" x="0px" y="0px" width="16px"
	 height="16px" viewBox="0 0 16 16" enable-background="new 0 0 16 16" xml:space="preserve">
<g id="Layer_2" display="none">
	<path display="inline" fill-rule="evenodd" clip-rule="evenodd" fill="#DF1731" d="M2,0h12c1.1,0,2,0.9,2,2v12c0,1.1-0.9,2-2,2H2
		c-1.1,0-2-0.9-2-2V2C0,0.9,0.9,0,2,0z"/>
	<path display="inline" fill-rule="evenodd" clip-rule="evenodd" fill="#FFFFFF" d="M2,11v2h12V8l-3-3L6.7,8.3l2,2L8,11L5,8L2,11z"
		/>
	<path display="inline" fill-rule="evenodd" clip-rule="evenodd" fill="#FFFFFF" d="M5.5,3C6.3,3,7,3.7,7,4.5S6.3,6,5.5,6
		S4,5.3,4,4.5S4.7,3,5.5,3z"/>
</g>
<g id="Layer_3">
	<path fill-rule="evenodd" clip-rule="evenodd" fill="#DF1731" d="M2,0h12c1.1,0,2,0.9,2,2v12c0,1.1-0.9,2-2,2H2c-1.1,0-2-0.9-2-2V2
		C0,0.9,0.9,0,2,0z"/>
	<path fill-rule="evenodd" clip-rule="evenodd" fill="#FFFFFF" d="M4,3h8c1.1,0,2,0.9,2,2v6c0,1.1-0.9,2-2,2H4c-1.1,0-2-0.9-2-2V5
		C2,3.9,2.9,3,4,3z"/>
	<path fill="#DF1731" d="M11,8l-5,3V5L11,8z"/>
</g>
</svg>
