<?xml version="1.0" encoding="utf-8"?>
<!-- Generator: Adobe Illustrator 17.1.0, SVG Export Plug-In . SVG Version: 6.00 Build 0)  -->
<!DOCTYPE svg PUBLIC "-//W3C//DTD SVG 1.1//EN" "http://www.w3.org/Graphics/SVG/1.1/DTD/svg11.dtd">
<svg version="1.1" id="Layer_1" xmlns="http://www.w3.org/2000/svg" xmlns:xlink="http://www.w3.org/1999/xlink" x="0px" y="0px"
	 width="205px" height="45px" viewBox="0 0 205 45" enable-background="new 0 0 205 45" xml:space="preserve">
<path fill="#FFFFFF" d="M0,0h51v45H19.1L0,25.9V0z"/>
<path fill="#DF1732" d="M42.5,20.2c1.2,0,2.2-1,2.2-2.2v-5.6c0-1.2-1-2.2-2.2-2.2h-5.6c-1.2,0-2.2,1-2.2,2.2v2.2h-4.4v-2.2
	c0-1.2-1-2.2-2.2-2.2h-5.6c-1.2,0-2.2,1-2.2,2.2v2.2l-4.1,0v-2.2c0-1.2-1-2.2-2.2-2.2H8.4c-1.2,0-2.2,1-2.2,2.2V18
	c0,1.2,1,2.2,2.2,2.2H14c1.2,0,2.2-1,2.2-2.2v-2.2h4.2V18c0,1.2,1,2.2,2.2,2.2h2.2v4.5h-2.2c-1.2,0-2.2,1-2.2,2.2v5.6
	c0,1.2,1,2.2,2.2,2.2h5.6c1.2,0,2.2-1,2.2-2.2V27c0-1.2-1-2.2-2.2-2.2h-2.2v-4.5h2.2c1.2,0,2.2-1,2.2-2.2v-2.2h4.4V18
	c0,1.2,1,2.2,2.2,2.2h2.2v4.5h-2.2c-1.2,0-2.2,1-2.2,2.2v5.6c0,1.2,1,2.2,2.2,2.2h5.6c1.2,0,2.2-1,2.2-2.2V27c0-1.2-1-2.2-2.2-2.2
	h-2.2v-4.5H42.5z"/>
<path fill="#FFFFFF" d="M68.6,16.4c-0.2,0.9-0.5,1.5-0.8,2c-0.3,0.5-0.8,0.8-1.3,1.1c-0.5,0.3-1.2,0.4-2,0.4h-3.1
	c-1.6,0-2.7-0.4-3.3-1.3c-0.7-0.9-1-2.6-1-5c0-0.2,0-0.2,0.1-0.2h1.4c0.1,0,0.2,0.1,0.2,0.2c0,1.6,0.2,3.1,0.6,3.6
	c0.2,0.2,0.5,0.4,0.8,0.5c0.4,0.1,0.8,0.2,1.4,0.2h2.9c0.4,0,0.6-0.1,1-0.2c0.3-0.1,0.6-0.3,0.8-0.5c0.5-0.5,0.7-1.8,0.7-3.2V3
	c0,0-5.3,0-5.3,0c-0.1,0-0.1-0.3-0.1-0.3l0-1.1c0-0.2,0.1-0.3,0.2-0.3h6.8c0.1,0,0.2,0.1,0.2,0.3v11.7
	C68.8,14.3,68.7,15.5,68.6,16.4z"/>
<path fill="#FFFFFF" d="M85.6,14.5c-0.1,0.9-0.2,1.7-0.4,2.3c-0.2,0.6-0.4,1.1-0.7,1.5c-0.3,0.4-0.7,0.7-1.1,0.9v0
	c-0.4,0.2-0.8,0.3-1.4,0.4c-0.6,0.1-1.3,0.1-2.1,0.1h-2.8c-1.9,0-3.2-0.3-3.9-0.8c-0.8-0.6-1.4-1.6-1.7-3.1
	c-0.1-0.6-0.2-1.4-0.2-2.4c0-1-0.1-2.3-0.1-3.8c0-1.2,0-2.3,0.1-3.2c0.1-0.9,0.2-1.7,0.4-2.3c0.2-0.6,0.4-1.1,0.7-1.5
	c0.3-0.4,0.7-0.7,1.1-1h0c0.7-0.4,1.9-0.6,3.5-0.6h2.8c1.8,0,3.1,0.3,3.9,0.9c0.4,0.3,0.7,0.7,1,1.2c0.3,0.5,0.5,1.2,0.6,2
	c0.1,0.5,0.1,1.3,0.2,2.4c0,1,0.1,2.3,0.1,3.8C85.7,12.5,85.6,13.6,85.6,14.5z M84,9.7c0-1,0-1.9-0.1-2.6c-0.1-0.7-0.1-1.3-0.3-1.7
	c-0.2-0.8-0.6-1.9-1.2-2.1C81.9,3.1,81.2,3,79.8,3h-2.8c-1.4,0-2.1,0.1-2.6,0.3c-0.6,0.2-1,1.3-1.2,2.1c-0.2,0.9-0.4,2.3-0.4,4.3
	v1.6c0,2,0.1,3.4,0.4,4.3c0.2,0.8,0.6,1.8,1.2,2c0.5,0.2,1.2,0.3,2.6,0.3h2.8c1.4,0,2.1-0.1,2.6-0.3c0.6-0.2,1-1.2,1.2-2
	c0.1-0.4,0.2-1,0.3-1.7c0-0.7,0.1-1.6,0.1-2.6V9.7z"/>
<path fill="#FFFFFF" d="M102.4,14.5c-0.1,0.9-0.2,1.7-0.4,2.3c-0.2,0.6-0.4,1.1-0.7,1.5c-0.3,0.4-0.7,0.7-1.1,0.9v0
	c-0.4,0.2-0.8,0.3-1.4,0.4c-0.6,0.1-1.3,0.1-2.1,0.1h-2.8c-1.9,0-3.2-0.3-3.9-0.8c-0.8-0.6-1.4-1.6-1.7-3.1
	c-0.1-0.6-0.2-1.4-0.2-2.4c0-1-0.1-2.3-0.1-3.8c0-1.2,0-2.3,0.1-3.2c0.1-0.9,0.2-1.7,0.4-2.3c0.2-0.6,0.4-1.1,0.7-1.5
	c0.3-0.4,0.7-0.7,1.1-1h0c0.7-0.4,1.9-0.6,3.5-0.6h2.8c1.8,0,3.1,0.3,3.9,0.9c0.4,0.3,0.7,0.7,1,1.2c0.3,0.5,0.5,1.2,0.6,2
	c0.1,0.5,0.1,1.3,0.2,2.4c0,1,0.1,2.3,0.1,3.8C102.5,12.5,102.5,13.6,102.4,14.5z M100.8,9.7c0-1,0-1.9-0.1-2.6
	c-0.1-0.7-0.1-1.3-0.3-1.7c-0.2-0.8-0.6-1.9-1.2-2.1C98.8,3.1,98.1,3,96.7,3h-2.8c-1.4,0-2.1,0.1-2.6,0.3c-0.6,0.2-1,1.3-1.2,2.1
	c-0.2,0.9-0.4,2.3-0.4,4.3v1.6c0,2,0.1,3.4,0.4,4.3c0.2,0.8,0.6,1.8,1.2,2c0.5,0.2,1.2,0.3,2.6,0.3h2.8c1.4,0,2.1-0.1,2.6-0.3
	c0.6-0.2,1-1.2,1.2-2c0.1-0.4,0.2-1,0.3-1.7c0-0.7,0.1-1.6,0.1-2.6V9.7z"/>
<path fill="#FFFFFF" d="M120.1,19.8c-0.1,0-0.2-0.1-0.2-0.3V3.2h-0.1l-6.1,16.6c0,0-0.1,0.1-0.1,0.1h-0.9c0,0,0,0-0.1,0l-6-16.6
	h-0.1v16.4c0,0.2-0.1,0.3-0.2,0.3h-1.4c-0.1,0-0.2-0.1-0.2-0.3v-18c0-0.2,0.1-0.3,0.2-0.3h2.7c0,0,0.1,0,0.1,0l5.5,15.2l5.6-15.2
	c0,0,0.1-0.1,0.1-0.1h2.5c0.1,0,0.1,0.1,0.1,0.3v18c0,0.2,0,0.3-0.1,0.3H120.1z"/>
<path fill="#FFFFFF" d="M124.7,19.8c-0.1,0-0.2-0.1-0.2-0.3v-18c0-0.2,0.1-0.3,0.2-0.3h1.5c0.1,0,0.2,0.1,0.2,0.3v16.4h6.7
	c0.1,0,0.2,0.1,0.2,0.3v1.4c0,0.2-0.1,0.3-0.2,0.3H124.7z"/>
<path fill="#FFFFFF" d="M146.5,19.8h-0.1c0,0,0,0,0-0.1l0,0l-1.4-4.3h-7.9l-1.4,4.3v0c0,0,0,0.1,0,0.1h-0.1h-1.5
	c-0.1,0-0.2-0.1-0.2-0.3v0c0,0,0-0.1,0-0.1v0.1l5.9-18.2c0,0,0.1-0.1,0.1-0.1h2.1c0,0,0.1,0,0.1,0c0,0,0,0,0,0l5.9,18.2v-0.1
	c0,0,0,0.1,0,0.1v0c0,0.2,0,0.3-0.1,0.3H146.5z M137.8,13.6h6.6l-3.3-10.3L137.8,13.6z"/>
<path fill="#FFFFFF" d="M70.1,42.8c-0.3,0.4-0.7,0.6-1.2,0.8c-0.5,0.2-1.1,0.2-1.7,0.2h-5.8c-1.2,0-2.1-0.4-2.7-1.3
	c-0.8-0.9-1.1-2.3-1.1-4.1c0-0.2,0-0.3,0.1-0.3h1.5c0.1,0,0.2,0.1,0.2,0.3c0,0.6,0.1,1.6,0.2,2c0.1,0.4,0.3,0.7,0.6,0.9
	c0.2,0.2,0.5,0.3,0.8,0.4c0.3,0.1,0.7,0.1,1.1,0.1H67c0.4,0,0.8,0,1.1-0.1c0.3-0.1,0.5-0.2,0.7-0.4c0.2-0.2,0.4-0.6,0.5-1
	c0.1-0.4,0.1-1.4,0.1-2c0-1.2-0.3-2.2-1-2.6c-0.3-0.2-0.6-0.3-1.1-0.4c-0.4-0.1-0.8-0.1-1.4-0.1c-0.1,0-3.2,0-3.3,0
	c-1.6,0-2.8-0.3-3.6-0.9c-1.1-0.8-1.6-2-1.6-4.1c0-3.4,1.2-5.1,3.6-5.1H67c2.7,0,4,1.8,4,5.4c0,0.2,0,0.2-0.1,0.2h-1.5
	c-0.1,0-0.1-0.1-0.1-0.2c0-0.6-0.1-1.5-0.2-2c-0.1-0.4-0.3-0.7-0.6-1c-0.4-0.3-1.1-0.5-1.9-0.5h-5.1c-0.4,0-0.7,0-1,0.1
	c-0.3,0.1-0.5,0.2-0.6,0.4c-0.3,0.4-0.5,1.5-0.5,2.6s0.3,2.1,1,2.5c0.6,0.4,1.2,0.6,2.2,0.6c1,0,4.6-0.1,5.3,0.1
	c0.7,0.2,1.1,0.4,1.6,0.7c1.1,0.9,1.7,2.1,1.7,4.3C71.1,40.5,70.8,41.9,70.1,42.8z"/>
<path fill="#FFFFFF" d="M73.5,43.9c-0.1,0-0.1-0.1-0.1-0.3v-18c0-0.2,0-0.3,0.1-0.3H75c0.1,0,0.1,0.1,0.1,0.3v18
	c0,0.2,0,0.3-0.1,0.3H73.5z"/>
<path fill="#FFFFFF" d="M83.5,27.3v16.4c0,0.2-0.1,0.3-0.2,0.3h-1.5c-0.1,0-0.1-0.1-0.1-0.3V27.3h-4.6c-0.1,0-0.2-0.1-0.2-0.3v-1.4
	c0-0.2,0.1-0.3,0.2-0.3h11.2c0.1,0,0.2,0.1,0.2,0.3V27c0,0.2-0.1,0.3-0.2,0.3H83.5z"/>
<path fill="#FFFFFF" d="M88.9,39.1c0-2.7,0-6.3,0-9s1.5-4.8,5.5-4.8c4,0,4.7,0,4.7,0c0.1,0,0.1,0.1,0.1,0.3v1.3c0,0.2,0,0.3-0.1,0.3
	c0,0-3.2,0-5.2,0c-2.1,0-3.1,1.6-3.1,2.5c0,0.9,0,3.7,0,3.7h8c0.1,0,0.1,0.1,0.1,0.3v1.2c0,0.2,0,0.3-0.1,0.3h-8c0,0,0,3.2,0,4.2
	s1,2.5,2.9,2.5s5.4,0,5.4,0c0.1,0,0.1,0.1,0.1,0.3v1.4c0,0.2,0,0.3-0.1,0.3c0,0-0.9,0-4.7,0S88.9,41.8,88.9,39.1z"/>
<path fill="#FFFFFF" d="M116.5,35.7h-5v7.9c0,0.2-0.4,0.3-0.5,0.3h-1.3c-0.1,0-0.2-0.1-0.2-0.3v-18c0-0.2,0.1-0.3,0.2-0.3h6.5
	c5.1,0,5.2,4.3,5.2,4.9c0,0.3,0,0.7,0,1C121.6,34.5,119.2,35.7,116.5,35.7z M119.7,30.2c0-0.5-0.1-2.9-3-2.9h-5.1v6.3h5.2
	c3,0,3-2,3-2.5V30.2z"/>
<path fill="#FFFFFF" d="M159,43.9c-0.1,0-0.1,0-0.1-0.1l-9-16.5h-0.1v16.4c0,0.2-0.1,0.3-0.2,0.3h-1.4c-0.1,0-0.2-0.1-0.2-0.3v-18
	c0-0.2,0.1-0.3,0.2-0.3h2.6c0,0,0.1,0,0.1,0.1l8.4,15.7V25.6c0-0.2,0.1-0.3,0.2-0.3h1.5c0.1,0,0.2,0.1,0.2,0.3v18
	c0,0.2-0.1,0.3-0.2,0.3H159z"/>
<path fill="#FFFFFF" d="M123.4,43.9c-0.1,0-0.2-0.1-0.2-0.3v-18c0-0.2,0.1-0.3,0.2-0.3h1.5c0.1,0,0.2,0.1,0.2,0.3V42h6.7
	c0.1,0,0.2,0.1,0.2,0.3v1.4c0,0.2-0.1,0.3-0.2,0.3H123.4z"/>
<path fill="#FFFFFF" d="M145.2,43.9h-0.1c0,0,0,0,0-0.1l0,0l-1.4-4.3h-7.9l-1.4,4.3v0c0,0,0,0.1,0,0.1h-0.1h-1.5
	c-0.1,0-0.2-0.1-0.2-0.3v0c0,0,0-0.1,0-0.1v0.1l5.9-18.2c0,0,0.1-0.1,0.1-0.1h2.1c0,0,0.1,0,0.1,0c0,0,0,0,0,0l5.9,18.2v-0.1
	c0,0,0,0.1,0,0.1v0c0,0.2,0,0.3-0.1,0.3H145.2z M136.4,37.8h6.6l-3.3-10.3L136.4,37.8z"/>
<path fill="#FFFFFF" d="M174.9,43.9c-0.1,0-0.1,0-0.1-0.1l-9-16.5h-0.1v16.4c0,0.2-0.1,0.3-0.2,0.3h-1.4c-0.1,0-0.2-0.1-0.2-0.3v-18
	c0-0.2,0.1-0.3,0.2-0.3h2.6c0,0,0.1,0,0.1,0.1l8.4,15.7V25.6c0-0.2,0.1-0.3,0.2-0.3h1.5c0.1,0,0.2,0.1,0.2,0.3v18
	c0,0.2-0.1,0.3-0.2,0.3H174.9z"/>
<path fill="#FFFFFF" d="M179.6,39.1c0-2.7,0-6.3,0-9s1.5-4.8,5.5-4.8s4.7,0,4.7,0c0.1,0,0.1,0.1,0.1,0.3v1.3c0,0.2,0,0.3-0.1,0.3
	c0,0-3.2,0-5.2,0s-3.1,1.6-3.1,2.5c0,0.9,0,3.7,0,3.7h8c0.1,0,0.1,0.1,0.1,0.3v1.2c0,0.2,0,0.3-0.1,0.3h-8c0,0,0,3.2,0,4.2
	s1,2.5,2.9,2.5s5.4,0,5.4,0c0.1,0,0.1,0.1,0.1,0.3v1.4c0,0.2,0,0.3-0.1,0.3c0,0-0.9,0-4.7,0C181.3,43.9,179.6,41.8,179.6,39.1z"/>
<path fill="#FFFFFF" d="M199.4,35.8h-2.1c0,0,7.2,6.5,7.5,6.9c0.1,0.1,0.2,0.2,0.1,0.4c0,0.2-0.9,1-1.1,0.9c-0.3,0-0.5-0.3-0.5-0.3
	l-8.9-7.9v7.9c0,0.2-0.4,0.3-0.5,0.3h-1.3c-0.1,0-0.2-0.1-0.2-0.3v-18c0-0.2,0.1-0.3,0.2-0.3h6.5c5.1,0,5.2,4.3,5.2,4.9
	c0,0.3,0,0.7,0,1C204.5,34.5,202.1,35.8,199.4,35.8z M202.6,30.3c0-0.5-0.1-2.9-3-2.9h-5.1v6.3h5.2c3,0,3-2,3-2.5V30.3z"/>
</svg>
