<?xml version="1.0" encoding="utf-8"?>
<!-- Generator: Adobe Illustrator 17.1.0, SVG Export Plug-In . SVG Version: 6.00 Build 0)  -->
<!DOCTYPE svg PUBLIC "-//W3C//DTD SVG 1.1//EN" "http://www.w3.org/Graphics/SVG/1.1/DTD/svg11.dtd">
<svg version="1.1" xmlns="http://www.w3.org/2000/svg" xmlns:xlink="http://www.w3.org/1999/xlink" x="0px" y="0px" width="193.2px"
	 height="45.1px" viewBox="0 -0.1 193.2 45.1" enable-background="new 0 -0.1 193.2 45.1" xml:space="preserve">
<g id="Layer_1">
	<g>
		<path fill="#FFFFFF" d="M68.8,15.7c0,1.8-0.4,3-1.2,3.8c-0.8,0.8-2.1,1.1-3.8,1.1c-0.9,0-1.7-0.1-2.2-0.3c-0.6-0.2-1-0.6-1.4-1
			c-0.3-0.5-0.6-1-0.7-1.6s-0.2-1.2-0.2-1.9V15h3.1v0.6c0,0.9,0.1,1.6,0.3,2c0.2,0.5,0.6,0.7,1.2,0.7c0.6,0,1-0.2,1.2-0.7
			c0.2-0.5,0.3-1.1,0.3-2v-12H69v12.1H68.8z"/>
		<path fill="#FFFFFF" d="M74.1,14.9c0,0.8,0.1,1.5,0.3,1.9c0.1,0.5,0.4,0.9,0.7,1.1c0.3,0.2,0.7,0.3,1.2,0.3c0.4,0,0.9-0.1,1.2-0.3
			c0.3-0.2,0.6-0.6,0.7-1.1c0.1-0.5,0.2-1.1,0.3-1.9c0-0.8,0.1-1.8,0.1-2.9s0-2.1-0.1-2.9c0-0.8-0.1-1.5-0.3-1.9
			c-0.1-0.5-0.4-0.9-0.7-1.1c-0.3-0.2-0.7-0.3-1.2-0.3c-0.5,0-0.9,0.1-1.2,0.3c-0.3,0.2-0.6,0.6-0.7,1.1c-0.1,0.4-0.2,1.1-0.3,1.9
			c0,0.8-0.1,1.8-0.1,2.9S74.1,14.1,74.1,14.9z M70.9,8.5c0.1-1.1,0.3-2,0.8-2.8s1-1.3,1.7-1.8c0.8-0.5,1.8-0.7,3-0.7
			c1.2,0,2.2,0.2,3,0.7c0.8,0.5,1.3,1,1.7,1.8c0.5,0.8,0.7,1.7,0.8,2.8c0.1,1.1,0.2,2.3,0.2,3.5s-0.1,2.5-0.2,3.6s-0.3,2-0.8,2.8
			s-1,1.4-1.7,1.8c-0.8,0.5-1.8,0.6-3,0.6c-1.2,0-2.2-0.2-3-0.6c-0.8-0.4-1.4-1-1.7-1.8c-0.5-0.8-0.7-1.7-0.8-2.8
			c-0.1-1.1-0.2-2.2-0.2-3.6C70.7,10.7,70.8,9.5,70.9,8.5z"/>
		<path fill="#FFFFFF" d="M87.3,14.9c0,0.8,0.1,1.5,0.3,1.9c0.1,0.5,0.4,0.9,0.7,1.1c0.3,0.2,0.7,0.3,1.2,0.3c0.5,0,0.9-0.1,1.2-0.3
			c0.3-0.2,0.6-0.6,0.7-1.1c0.1-0.5,0.2-1.1,0.3-1.9c0-0.8,0.1-1.8,0.1-2.9s0-2.1-0.1-2.9c0-0.8-0.1-1.5-0.3-1.9
			C91.3,6.7,91,6.2,90.8,6c-0.3-0.2-0.7-0.3-1.2-0.3c-0.4,0-0.9,0.1-1.2,0.3c-0.3,0.2-0.6,0.6-0.7,1.1c-0.1,0.4-0.2,1.1-0.3,1.9
			c0,0.8-0.1,1.8-0.1,2.9S87.3,14.1,87.3,14.9z M84,8.5c0.1-1.1,0.3-2,0.8-2.8s1-1.3,1.7-1.8c0.8-0.5,1.8-0.7,3-0.7
			c1.2,0,2.2,0.2,3,0.7s1.3,1,1.7,1.8c0.5,0.8,0.7,1.7,0.8,2.8c0.1,1.1,0.2,2.3,0.2,3.5s-0.1,2.5-0.2,3.6c-0.1,1.1-0.3,2-0.8,2.8
			c-0.5,0.8-1,1.4-1.7,1.8c-0.8,0.5-1.8,0.6-3,0.6c-1.2,0-2.2-0.2-3-0.6c-0.8-0.4-1.3-1-1.7-1.8c-0.5-0.8-0.7-1.7-0.8-2.8
			c-0.1-1.1-0.2-2.2-0.2-3.6C83.8,10.7,83.9,9.5,84,8.5z"/>
		<path fill="#FFFFFF" d="M102.5,3.5l2.4,11.9l0,0l2.5-11.9h5.1v16.9h-3.2V6.9l0,0l-3,13.5h-2.7l-3-13.5l0,0v13.5h-3.2V3.5
			C97.3,3.5,102.5,3.5,102.5,3.5z"/>
		<path fill="#FFFFFF" d="M114.8,3.5h3.4v14.1h6.1v2.8h-9.5V3.5z"/>
		<path fill="#FFFFFF" d="M129.5,14l1.6-7.5l0,0l1.6,7.5H129.5z M129,3.5l-4.5,16.9h3.6l0.8-3.6h4.5l0.8,3.6h3.5l-4.5-16.9
			C133.2,3.5,129,3.5,129,3.5z"/>
		<path fill="#FFFFFF" d="M148.4,3.9v0.6h-2.2v5.8h-0.6v-6h-2.2V3.9H148.4z"/>
		<path fill="#FFFFFF" d="M148.9,3.9v6.4h0.6V4.8l0,0l2.1,5.5h0.6l2.2-5.5l0,0v5.5h0.6V3.9h-0.9l-2.2,5.6l-2.1-5.6H148.9z"/>
		<path fill="#FFFFFF" d="M62.9,38.1c0,0.5,0,0.8,0.1,1.1s0.2,0.6,0.3,0.8c0.2,0.2,0.5,0.5,0.7,0.6c0.3,0.1,0.7,0.2,1.1,0.2
			c0.6,0,1-0.2,1.3-0.6c0.5-0.3,0.7-0.9,0.7-1.6c0-0.3,0-0.7-0.1-1c-0.1-0.2-0.2-0.6-0.6-0.8c-0.2-0.2-0.6-0.5-0.9-0.6
			c-0.3-0.2-0.9-0.3-1.5-0.6c-0.8-0.2-1.5-0.6-1.9-0.8c-0.6-0.3-1-0.7-1.3-1c-0.3-0.5-0.7-0.9-0.8-1.4c-0.2-0.6-0.2-1.1-0.2-1.8
			c0-1.7,0.5-2.9,1.3-3.7c0.9-0.8,2.2-1.2,3.8-1.2c0.8,0,1.5,0.1,2.1,0.2c0.7,0.1,1.2,0.5,1.7,0.8c0.5,0.3,0.8,0.8,1.1,1.5
			c0.2,0.6,0.3,1.2,0.3,2v0.5H67c0-0.8-0.1-1.5-0.4-1.8c-0.3-0.4-0.8-0.7-1.5-0.7c-0.3,0-0.7,0-0.9,0.1c-0.2,0.1-0.4,0.2-0.6,0.4
			c-0.1,0.2-0.2,0.3-0.3,0.7c0,0.2-0.1,0.4-0.1,0.8c0,0.6,0.1,1,0.3,1.4s0.7,0.7,1.5,1l2.6,1.1c0.7,0.3,1.1,0.6,1.6,0.9
			c0.5,0.3,0.8,0.7,1,1c0.2,0.3,0.4,0.8,0.6,1.1c0.1,0.5,0.1,0.9,0.1,1.5c0,1.8-0.6,3-1.6,3.9c-1,0.8-2.5,1.2-4.3,1.2
			c-1.9,0-3.3-0.5-4.2-1.2c-0.8-0.8-1.2-2-1.2-3.6v-0.7H63v0.1H62.9z"/>
		<path fill="#FFFFFF" d="M72.6,26h3.4v16.9h-3.4V26z"/>
		<path fill="#FFFFFF" d="M88.3,28.8h-3.7v14.1h-3.4V28.8h-3.6V26h10.8v2.8H88.3z"/>
		<path fill="#FFFFFF" d="M99.2,28.8h-6.1v3.9h5.6v2.8h-5.6v4.5h6.3v2.8h-9.7V26h9.5V28.8z"/>
		<path fill="#FFFFFF" d="M111.7,33.7c0.7,0,1.2-0.2,1.7-0.6c0.5-0.5,0.7-1,0.7-1.9c0-0.9-0.2-1.5-0.6-1.9c-0.3-0.5-1-0.7-1.8-0.7
			h-1.5v5.1H111.7z M112.8,26c0.9,0,1.6,0.1,2.1,0.4s1,0.7,1.5,1.1c0.3,0.4,0.7,1,0.8,1.6c0.1,0.6,0.2,1.2,0.2,1.8
			c0,0.9-0.1,1.6-0.3,2.2c-0.2,0.7-0.7,1.1-1.1,1.6c-0.4,0.4-1,0.7-1.7,0.9c-0.7,0.2-1.3,0.3-2.2,0.3h-1.8v6.8h-3.4V25.9h6V26z"/>
		<path fill="#FFFFFF" d="M119.1,26h3.4v14.1h6.1v2.8h-9.5V26z"/>
		<path fill="#FFFFFF" d="M133.8,36.5l1.6-7.5l0,0l1.6,7.5H133.8z M133.3,26l-4.5,16.9h3.6l0.8-3.6h4.5l0.8,3.6h3.6L137.6,26H133.3z
			"/>
		<path fill="#FFFFFF" d="M151.2,37.6L151.2,37.6V26h3.1v16.9h-3.8l-4.2-11.8l0,0v11.8h-3.1V26h3.9L151.2,37.6z"/>
		<path fill="#FFFFFF" d="M164.8,37.6L164.8,37.6V26h3.2v16.9h-3.8L160,31.1l0,0v11.8h-3.1V26h3.9L164.8,37.6z"/>
		<path fill="#FFFFFF" d="M179.8,28.8h-6.1v3.9h5.6v2.8h-5.6v4.5h6.3v2.8h-9.7V26h9.4V28.8z"/>
		<path fill="#FFFFFF" d="M188,26c1.5,0,2.5,0.3,3.3,1.1c0.8,0.7,1.2,1.8,1.2,3.3c0,1.1-0.2,2-0.7,2.8c-0.4,0.7-1.1,1.1-2.1,1.4l0,0
			c0.9,0.1,1.5,0.4,1.9,0.8c0.3,0.5,0.7,1.1,0.8,2c0,0.3,0,0.7,0.1,1c0,0.3,0,0.8,0,1.2c0,0.9,0.1,1.6,0.1,2c0.1,0.5,0.3,0.8,0.6,1
			v0.1h-3.7c-0.2-0.2-0.3-0.6-0.3-0.8c0-0.3-0.1-0.7-0.1-1l-0.1-3.3c0-0.7-0.2-1.1-0.4-1.6c-0.3-0.3-0.8-0.6-1.5-0.6h-1.8v7.1h-3.4
			V25.8h6.2V26z M186.5,33.3c0.8,0,1.5-0.2,1.9-0.6c0.4-0.3,0.7-1,0.7-1.9c0-1.6-0.8-2.4-2.4-2.4h-1.6v4.8H186.5z"/>
		<path fill="#FFFFFF" d="M0-0.1h50.6v45H19.1L0,25.8V-0.1z"/>
		<path fill="#DF1431" d="M34.9,15.7v2.2c0,1.2,1,2.2,2.2,2.2h5.6c1.2,0,2.2-1,2.2-2.2v-5.6c0-1.2-1-2.2-2.2-2.2h-5.6
			c-1.2,0-2.2,1-2.2,2.2v2.2h-4.5v-2.2c0-1.2-1-2.2-2.2-2.2h-5.6c-1.2,0-2.2,1-2.2,2.2v2.2l-4.5-0.1v-2.1c0-1.2-1-2.2-2.2-2.2H7.9
			c-1.2,0-2.2,1-2.2,2.2v5.6c0,1.2,1,2.2,2.2,2.2h5.6c1.2,0,2.2-1,2.2-2.2v-2.2h4.5v2.2c0,1.2,1,2.2,2.2,2.2h2.2v4.5h-2.2
			c-1.2,0-2.2,1-2.2,2.2v5.6c0,1.2,1,2.2,2.2,2.2h5.6c1.2,0,2.2-1,2.2-2.2v-5.6c0-1.2-1-2.2-2.2-2.2h-2.2v-4.5h2.2
			c1.2,0,2.2-1,2.2-2.2v-2.2H34.9z"/>
	</g>
</g>
<g id="Layer_2" display="none">
	<g id="mVaNqt.tif" display="inline">
		<image overflow="visible" width="176" height="45" id="Layer_0_1_" xlink:href="650BE9E3BF299B4E.png" >
		</image>
	</g>
</g>
</svg>
