<?xml version="1.0" encoding="utf-8"?>
<!-- Generator: Adobe Illustrator 17.1.0, SVG Export Plug-In . SVG Version: 6.00 Build 0)  -->
<!DOCTYPE svg PUBLIC "-//W3C//DTD SVG 1.1//EN" "http://www.w3.org/Graphics/SVG/1.1/DTD/svg11.dtd">
<svg version="1.1" id="Layer_4" xmlns="http://www.w3.org/2000/svg" xmlns:xlink="http://www.w3.org/1999/xlink" x="0px" y="0px"
	 width="16px" height="16px" viewBox="0 0 16 16" enable-background="new 0 0 16 16" xml:space="preserve">
<path fill="#339900" d="M2,0h12c1.1,0,2,0.9,2,2v12c0,1.1-0.9,2-2,2H2c-1.1,0-2-0.9-2-2V2C0,0.9,0.9,0,2,0z"/>
<path fill="#FFFFFF" d="M5.7,6.4H3.9V5.2H4c0.6,0,1.1-0.1,1.5-0.4c0.4-0.2,0.6-0.6,0.7-1.1h1.4V13H5.7V6.4z"/>
<path fill="#FFFFFF" d="M11.5,2l0.6,1.9H14l-1.5,1.2L13,7l-1.5-1.2L10,7l0.6-1.9L9,3.9h1.9L11.5,2z"/>
</svg>
