<?xml version="1.0" encoding="utf-8"?>
<!-- Generator: Adobe Illustrator 17.1.0, SVG Export Plug-In . SVG Version: 6.00 Build 0)  -->
<!DOCTYPE svg PUBLIC "-//W3C//DTD SVG 1.1//EN" "http://www.w3.org/Graphics/SVG/1.1/DTD/svg11.dtd">
<svg version="1.1" id="Layer_2" xmlns="http://www.w3.org/2000/svg" xmlns:xlink="http://www.w3.org/1999/xlink" x="0px" y="0px"
	 width="16px" height="16px" viewBox="0 0 16 16" enable-background="new 0 0 16 16" xml:space="preserve">
<path fill="#339900" d="M2,0h12c1.1,0,2,0.9,2,2v12c0,1.1-0.9,2-2,2H2c-1.1,0-2-0.9-2-2V2C0,0.9,0.9,0,2,0z"/>
<path fill="#FFFFFF" d="M3.6,13c0-0.4,0-0.8,0.1-1.2s0.2-0.7,0.4-1c0.2-0.3,0.4-0.6,0.6-1C5,9.5,5.3,9.2,5.6,8.9l0.8-0.7
	C6.6,8,6.8,7.8,6.9,7.7C7,7.5,7.1,7.4,7.2,7.2C7.3,7,7.3,6.9,7.3,6.7c0-0.2,0-0.4,0-0.6c0-0.8-0.3-1.2-0.9-1.2C6.2,4.9,6,4.9,5.9,5
	C5.7,5.1,5.6,5.3,5.6,5.4C5.5,5.6,5.4,5.8,5.4,6s0,0.5,0,0.7H3.6V6.4c0-0.9,0.2-1.5,0.7-2s1.2-0.7,2.2-0.7s1.7,0.2,2.1,0.7
	c0.4,0.3,0.7,1,0.7,1.8c0,0.3,0,0.6-0.1,0.8C9.1,7.3,9.1,7.5,8.9,7.8C8.8,8,8.7,8.2,8.5,8.5C8.3,8.7,8.1,8.9,7.8,9.2l-1.1,1
	c-0.3,0.3-0.5,0.5-0.7,0.7s-0.3,0.5-0.3,0.6h3.5V13H3.6z"/>
<path fill="#FFFFFF" d="M11.5,2l0.6,1.9H14l-1.5,1.2L13,7l-1.5-1.2L10,7l0.6-1.9L9,3.9h1.9L11.5,2z"/>
</svg>
